<mxfile host="app.diagrams.net" agent="Mozilla/5.0 (Macintosh; Intel Mac OS X 10_15_7) AppleWebKit/537.36 (KHTML, like Gecko) Chrome/129.0.0.0 Safari/537.36" version="24.7.17">
  <diagram name="Page-1" id="I3JRtS51iUXjjG9LGBpV">
    <mxGraphModel dx="821" dy="498" grid="1" gridSize="10" guides="1" tooltips="1" connect="1" arrows="1" fold="1" page="1" pageScale="1" pageWidth="1169" pageHeight="827" math="0" shadow="0">
      <root>
        <mxCell id="0" />
        <mxCell id="1" parent="0" />
        <mxCell id="5hGR4clPvYDhB8Z5HBtk-1" value="Odosielateľ" style="shape=umlActor;verticalLabelPosition=bottom;verticalAlign=top;html=1;outlineConnect=0;labelBackgroundColor=none;" vertex="1" parent="1">
          <mxGeometry x="450" y="170" width="30" height="60" as="geometry" />
        </mxCell>
        <mxCell id="5hGR4clPvYDhB8Z5HBtk-2" value="Prijímateľ" style="shape=umlActor;verticalLabelPosition=bottom;verticalAlign=top;html=1;outlineConnect=0;labelBackgroundColor=none;" vertex="1" parent="1">
          <mxGeometry x="660" y="170" width="30" height="60" as="geometry" />
        </mxCell>
        <mxCell id="5hGR4clPvYDhB8Z5HBtk-3" value="" style="endArrow=none;html=1;rounded=0;labelBackgroundColor=none;fontColor=default;" edge="1" parent="1">
          <mxGeometry width="50" height="50" relative="1" as="geometry">
            <mxPoint x="470" y="470" as="sourcePoint" />
            <mxPoint x="470" y="270" as="targetPoint" />
          </mxGeometry>
        </mxCell>
        <mxCell id="5hGR4clPvYDhB8Z5HBtk-4" value="" style="endArrow=none;html=1;rounded=0;labelBackgroundColor=none;fontColor=default;" edge="1" parent="1">
          <mxGeometry width="50" height="50" relative="1" as="geometry">
            <mxPoint x="670" y="474" as="sourcePoint" />
            <mxPoint x="670" y="274" as="targetPoint" />
          </mxGeometry>
        </mxCell>
        <mxCell id="5hGR4clPvYDhB8Z5HBtk-5" value="" style="endArrow=classic;html=1;rounded=0;labelBackgroundColor=none;fontColor=default;" edge="1" parent="1">
          <mxGeometry relative="1" as="geometry">
            <mxPoint x="470" y="270" as="sourcePoint" />
            <mxPoint x="670" y="320" as="targetPoint" />
          </mxGeometry>
        </mxCell>
        <mxCell id="5hGR4clPvYDhB8Z5HBtk-6" value="FIN = 1" style="edgeLabel;resizable=0;html=1;;align=center;verticalAlign=middle;labelBackgroundColor=none;" connectable="0" vertex="1" parent="5hGR4clPvYDhB8Z5HBtk-5">
          <mxGeometry relative="1" as="geometry" />
        </mxCell>
        <mxCell id="5hGR4clPvYDhB8Z5HBtk-7" value="" style="endArrow=classic;html=1;rounded=0;labelBackgroundColor=none;fontColor=default;" edge="1" parent="1">
          <mxGeometry relative="1" as="geometry">
            <mxPoint x="670" y="320" as="sourcePoint" />
            <mxPoint x="470" y="370" as="targetPoint" />
          </mxGeometry>
        </mxCell>
        <mxCell id="5hGR4clPvYDhB8Z5HBtk-8" value="&lt;span style=&quot;background-color: initial;&quot;&gt;ACK = 1&lt;/span&gt;" style="edgeLabel;resizable=0;html=1;;align=center;verticalAlign=middle;labelBackgroundColor=none;" connectable="0" vertex="1" parent="5hGR4clPvYDhB8Z5HBtk-7">
          <mxGeometry relative="1" as="geometry" />
        </mxCell>
        <mxCell id="5hGR4clPvYDhB8Z5HBtk-9" value="" style="endArrow=classic;html=1;rounded=0;labelBackgroundColor=none;fontColor=default;" edge="1" parent="1">
          <mxGeometry relative="1" as="geometry">
            <mxPoint x="470" y="400" as="sourcePoint" />
            <mxPoint x="670" y="450" as="targetPoint" />
          </mxGeometry>
        </mxCell>
        <mxCell id="5hGR4clPvYDhB8Z5HBtk-10" value="ACK = 1" style="edgeLabel;resizable=0;html=1;;align=center;verticalAlign=middle;labelBackgroundColor=none;" connectable="0" vertex="1" parent="5hGR4clPvYDhB8Z5HBtk-9">
          <mxGeometry relative="1" as="geometry">
            <mxPoint as="offset" />
          </mxGeometry>
        </mxCell>
        <mxCell id="5hGR4clPvYDhB8Z5HBtk-11" value="Spojenie sa úspešne ukončilo" style="text;html=1;align=center;verticalAlign=middle;whiteSpace=wrap;rounded=0;labelBackgroundColor=none;fillColor=#f5f5f5;fontColor=#333333;strokeColor=#666666;" vertex="1" parent="1">
          <mxGeometry x="470" y="470" width="200" height="30" as="geometry" />
        </mxCell>
        <mxCell id="5hGR4clPvYDhB8Z5HBtk-12" value="" style="endArrow=classic;html=1;rounded=0;labelBackgroundColor=none;fontColor=default;" edge="1" parent="1">
          <mxGeometry relative="1" as="geometry">
            <mxPoint x="670" y="350" as="sourcePoint" />
            <mxPoint x="470" y="400" as="targetPoint" />
          </mxGeometry>
        </mxCell>
        <mxCell id="5hGR4clPvYDhB8Z5HBtk-13" value="FIN = 1" style="edgeLabel;resizable=0;html=1;;align=center;verticalAlign=middle;labelBackgroundColor=none;" connectable="0" vertex="1" parent="5hGR4clPvYDhB8Z5HBtk-12">
          <mxGeometry relative="1" as="geometry" />
        </mxCell>
      </root>
    </mxGraphModel>
  </diagram>
</mxfile>
